<svg xmlns="http://www.w3.org/2000/svg" width="20" height="18" viewBox="0 0 20 18">
  <path id="icon"
    d="M10.1,18h0a.929.929,0,0,1-.909-.948v-.164a1.81,1.81,0,0,0-1.84-1.572H.91A.93.93,0,0,1,0,14.368V.947A.929.929,0,0,1,.91,0H6.426a4.6,4.6,0,0,1,3.665,1.808A4.5,4.5,0,0,1,13.693,0h5.4A.928.928,0,0,1,20,.947V14.368a.929.929,0,0,1-.909.948h-6.3a1.773,1.773,0,0,0-1.781,1.557v.178A.93.93,0,0,1,10.1,18ZM1.819,13.421H7.345a3.666,3.666,0,0,1,1.84.491V4.526c0-.055,0-.109,0-.163A2.716,2.716,0,0,0,6.426,1.894H1.819Zm9.193-8.9v9.369a3.563,3.563,0,0,1,1.781-.474h5.388V1.894H13.693A2.67,2.67,0,0,0,11.009,4.35C11.011,4.408,11.012,4.467,11.012,4.526Z"
    fill="#ff0a6b" />
</svg>